# xmcd
#
# Track frame offsets: 
#        150
#        19782
#        26618
#        39871
#        53563
#        66220
#        78437
#        92656
#        106843
#        119453
#        132856
#        146756
#        161826
#        174068
#        186369
#        198841
#        211673
#        223611
#        236063
#        248244
#        258588
#        269529
#        283126
#
# Disc length: 3981 seconds
#
# Revision: 1
# Processed by: cddbd v1.5.2PL0 Copyright (c) Steve Scherf et al.
# Submitted via: ExactAudioCopy v0.99pb1
#
DISCID=490f8b17
DTITLE=Texas Blues - CD 2
DYEAR=2001
DGENRE=General Blues
TTITLE0=Santa Fe Blues - Smith Casey
TTITLE1=West Texas Blues - Smith Casey
TTITLE2=West Texas Woman - Whistling Alex Moore
TTITLE3=Heart Wrecked Blues - Whistling Alex Moore
TTITLE4=Sundown Blues - Blind Norris
TTITLE5=The Katy Blues - Blind Norris
TTITLE6=Sunbeam Blues - Billiken Johnson
TTITLE7=Interurban Blues - Billiken Johnson
TTITLE8=Elm Street Woman Blues - Dallas Jamboree Jug Band
TTITLE9=Flying Crow Blues - Dallas Jamboree Jug Band
TTITLE10=Good Morning Blues - Texas Bill Day
TTITLE11=Going Back To My Baby - Texas Bill Day
TTITLE12=Wandering Blues - Gene Campbell
TTITLE13=Robbing And Stealing Blues - Gene Campbell
TTITLE14=Texas Dream Blues - Teddy Moss
TTITLE15=Ocean Wave Blues - Teddy Moss
TTITLE16=Matchbox Blues - Black Ivory King
TTITLE17=The Flying Crow - Black Ivory King
TTITLE18=Nok-Em-All - Eddie And Oscar
TTITLE19=Bad Luck Town Blues - Black Boy Shine
TTITLE20=Gambling Jinx Blues - Black Boy Shine
TTITLE21=West Dallas Drag No. 1/ Robert Cooper
TTITLE22=Black Gal, What Makes Your Head So Hard? - Joe Pullum
EXTD=william hale
EXTT0=
EXTT1=
EXTT2=
EXTT3=
EXTT4=
EXTT5=
EXTT6=
EXTT7=
EXTT8=
EXTT9=
EXTT10=
EXTT11=
EXTT12=
EXTT13=
EXTT14=
EXTT15=
EXTT16=
EXTT17=
EXTT18=
EXTT19=
EXTT20=
EXTT21=
EXTT22=
PLAYORDER=
